name analog
datacolumns 19
datarows 55
range 0.4635 0.4905
endheader
time	ground_force_vx	ground_force_vy	ground_force_vz	ground_force_px	ground_force_py	ground_force_pz	l_ground_force_vx	l_ground_force_vy	l_ground_force_vz	l_ground_force_px	l_ground_force_py	l_ground_force_pz	ground_torque_x	ground_torque_y	ground_torque_z	l_ground_torque_x	l_ground_torque_y	l_ground_torque_z
0.4635	-0.0	-0.0	-0.0	-1.812967658042908	-3.9217376708984375	-348.12158203125	-2.912843704223633	1.8983994722366333	-395.7654113769531	-0.0	-0.0	-0.0	-0.0	-0.0	-0.0	103977.984375	-19043.853515625	-8589.501953125
0.464	-0.0	-0.0	-0.0	-1.7091915607452393	-4.189708232879639	-347.234375	-3.1350371837615967	2.545875072479248	-395.99554443359375	-0.0	-0.0	-0.0	-0.0	-0.0	-0.0	104382.6015625	-19133.486328125	-8490.3935546875
0.4645	-0.0	-0.0	-0.0	-1.903393268585205	-3.9809224605560303	-347.3517761230469	-2.76470947265625	2.3255856037139893	-396.63623046875	-0.0	-0.0	-0.0	-0.0	-0.0	-0.0	104416.421875	-19122.56640625	-8500.2333984375
0.465	-0.0	-0.0	-0.0	-1.6801525354385376	-3.802812099456787	-348.23541259765625	-2.98630690574646	2.590625286102295	-395.9362487792969	-0.0	-0.0	-0.0	-0.0	-0.0	-0.0	104808.6953125	-19212.873046875	-8608.95703125
0.4655	-0.0	-0.0	-0.0	-2.512766122817993	-4.025746822357178	-349.0006408691406	-3.2678492069244385	2.1933696269989014	-399.5466003417969	-0.0	-0.0	-0.0	-0.0	-0.0	-0.0	104755.9765625	-19411.72265625	-8569.7470703125
0.466	-0.0	-0.0	-0.0	-2.170866012573242	-4.144448280334473	-347.6470947265625	-3.607597827911377	1.8546777963638303	-397.6255798339844	-0.0	-0.0	-0.0	-0.0	-0.0	-0.0	104520.3203125	-19450.46875	-8550.3046875
0.4665	-0.0	-0.0	-0.0	-2.8099024295806885	-4.055661678314209	-349.11749267578125	-3.341390609741211	1.7223460674285889	-396.98541259765625	-0.0	-0.0	-0.0	-0.0	-0.0	-0.0	104538.1796875	-19348.650390625	-8416.6220703125
0.467	-0.0	-0.0	-0.0	-2.631368398666382	-3.99658203125	-347.82293701171875	-3.104877471923828	1.869537353515625	-396.5208435058594	-0.0	-0.0	-0.0	-0.0	-0.0	-0.0	104573.84375	-19277.54296875	-8198.9375
0.4675	-0.0	-0.0	-0.0	-2.437021255493164	-4.381545543670654	-348.46978759765625	-2.75003433227539	1.692394733428955	-394.1357116699219	-0.0	-0.0	-0.0	-0.0	-0.0	-0.0	104328.59375	-19432.712890625	-8065.3486328125
0.468	-0.0	-0.0	-0.0	-1.309131383895874	-4.411422252655029	-347.8822631835937	-2.011279344558716	1.810220003128052	-395.2396240234375	-0.0	-0.0	-0.0	-0.0	-0.0	-0.0	103806.296875	-19227.21484375	-7945.947265625
0.4685	-0.0	-0.0	-0.0	-1.2200716733932495	-4.7363996505737305	-348.1756896972656	-1.7303489446640017	1.4577943086624146	-392.5014343261719	-0.0	-0.0	-0.0	-0.0	-0.0	-0.0	103602.9296875	-19250.994140625	-7787.833984375
0.46900000000000003	-0.0	-0.0	-0.0	-0.5805922150611877	-4.739007472991943	-347.7626342773437	-1.5230571031570437	1.38445782661438	-391.0498046875	-0.0	-0.0	-0.0	-0.0	-0.0	-0.0	103352.9453125	-19065.3828125	-7664.068359375
0.46950000000000003	-0.0	-0.0	-0.0	-1.3061888217926023	-5.13929557800293	-346.1163330078125	-1.4493951797485352	1.3982014656066897	-390.12054443359375	-0.0	-0.0	-0.0	-0.0	-0.0	-0.0	102944.171875	-19255.75	-7643.95849609375
0.47000000000000003	-0.0	-0.0	-0.0	-0.3872122764587402	-5.215077877044678	-343.0654602050781	-0.9758186340332032	1.6197558641433716	-389.8246765136719	-0.0	-0.0	-0.0	-0.0	-0.0	-0.0	102547.859375	-19073.87109375	-7396.69287109375
0.47050000000000003	-0.0	-0.0	-0.0	-0.4439970850944519	-5.289088249206543	-344.1177062988281	-0.6661990880966187	1.5314854383468628	-387.38714599609375	-0.0	-0.0	-0.0	-0.0	-0.0	-0.0	102209.7734375	-19135.275390625	-7277.85595703125
0.47100000000000003	-0.0	-0.0	-0.0	-0.4917986392974853	-5.717300891876221	-344.4621276855469	-0.4586659371852875	2.279365539550781	-387.7367248535156	-0.0	-0.0	-0.0	-0.0	-0.0	-0.0	102223.4765625	-19018.564453125	-7213.162109375
0.47150000000000003	-0.0	-0.0	-0.0	-0.2064859569072723	-5.526084899902344	-342.6549987792969	0.3678064048290252	2.0593881607055664	-386.1616821289063	-0.0	-0.0	-0.0	-0.0	-0.0	-0.0	102223.2734375	-19252.9296875	-6950.732421875
0.47200000000000003	-0.0	-0.0	-0.0	0.163108691573143	-5.141627311706543	-342.6451721191406	0.7248615622520447	2.6194331645965576	-386.3914184570313	-0.0	-0.0	-0.0	-0.0	-0.0	-0.0	101666.0859375	-19357.88671875	-6964.01123046875
0.47250000000000003	-0.0	-0.0	-0.0	0.2091210782527923	-4.975966453552246	-344.1188049316406	0.958039939403534	2.5487375259399414	-384.41595458984375	-0.0	-0.0	-0.0	-0.0	-0.0	-0.0	102028.984375	-19084.439453125	-6648.50341796875
0.47300000000000003	-0.0	-0.0	-0.0	-0.144529640674591	-4.548763751983643	-343.2423400878906	0.9023581147193908	2.61928391456604	-383.7776794433594	-0.0	-0.0	-0.0	-0.0	-0.0	-0.0	101300.4296875	-19001.2890625	-6717.13134765625
0.47350000000000003	-0.0	-0.0	-0.0	0.313869833946228	-4.1121344566345215	-344.2894287109375	1.0950796604156494	2.591745138168335	-383.597412109375	-0.0	-0.0	-0.0	-0.0	-0.0	-0.0	101422.546875	-18816.17578125	-6648.41552734375
0.47400000000000003	-0.0	-0.0	-0.0	0.3259463906288147	-3.5378215312957764	-344.289306640625	0.755616307258606	2.7106220722198486	-382.321044921875	-0.0	-0.0	-0.0	-0.0	-0.0	-0.0	101226.109375	-18845.333984375	-6594.43017578125
0.47450000000000003	-0.0	-0.0	-0.0	-0.2639289200305938	-3.2978248596191406	-345.5179443359375	0.7370070219039917	3.103179693222046	-383.6572265625	-0.0	-0.0	-0.0	-0.0	-0.0	-0.0	100920.8828125	-18988.181640625	-6767.22119140625
0.47500000000000003	-0.0	-0.0	-0.0	-0.2405138909816742	-3.282315492630005	-346.46954345703125	0.6517454981803894	2.653234004974365	-381.8043823242188	-0.0	-0.0	-0.0	-0.0	-0.0	-0.0	101415.359375	-18821.041015625	-6860.34130859375
0.47550000000000003	-0.0	-0.0	-0.0	-0.4501373469829559	-3.150634527206421	-345.3192138671875	0.3548431396484375	3.045229196548462	-383.3684692382813	-0.0	-0.0	-0.0	-0.0	-0.0	-0.0	101101.8359375	-18973.59765625	-6727.5576171875
0.47600000000000003	-0.0	-0.0	-0.0	-0.240768700838089	-3.549643039703369	-346.6375732421875	0.7829487323760986	2.97613787651062	-381.9267578125	-0.0	-0.0	-0.0	-0.0	-0.0	-0.0	101342.8828125	-18864.36328125	-6683.427734375
0.47650000000000003	-0.0	-0.0	-0.0	-0.8139820098876953	-3.2132275104522705	-345.65740966796875	0.8096786737442017	2.669254302978516	-382.0493774414063	-0.0	-0.0	-0.0	-0.0	-0.0	-0.0	100900.859375	-18814.9375	-6608.64892578125
0.47700000000000004	-0.0	-0.0	-0.0	-0.7715932726860046	-3.344734668731689	-345.2427062988281	0.709686279296875	2.7799627780914307	-381.5006408691406	-0.0	-0.0	-0.0	-0.0	-0.0	-0.0	100948.8828125	-18964.689453125	-6544.16796875
0.47750000000000004	-0.0	-0.0	-0.0	-1.00777268409729	-3.7542359828948975	-346.5316467285156	0.547813892364502	2.6651315689086914	-382.853759765625	-0.0	-0.0	-0.0	-0.0	-0.0	-0.0	100944.6796875	-18932.560546875	-6535.42138671875
0.47800000000000004	-0.0	-0.0	-0.0	-1.049654245376587	-3.1247053146362305	-344.5994873046875	0.4171899855136871	2.940863847732544	-380.1836853027344	-0.0	-0.0	-0.0	-0.0	-0.0	-0.0	100543.0625	-18854.732421875	-6579.1611328125
0.47850000000000004	-0.0	-0.0	-0.0	-0.923609495162964	-3.801131248474121	-345.92926025390625	0.3704558312892914	2.4313182830810547	-381.8489685058594	-0.0	-0.0	-0.0	-0.0	-0.0	-0.0	100801.671875	-18798.73828125	-6600.19775390625
0.47900000000000004	-0.0	-0.0	-0.0	-0.850264310836792	-3.7016735076904297	-341.5875244140625	0.3548431396484375	2.3691039085388184	-380.1233520507813	-0.0	-0.0	-0.0	-0.0	-0.0	-0.0	100629.09375	-19036.208984375	-6441.4755859375
0.47950000000000004	-0.0	-0.0	-0.0	-0.3208694458007812	-3.790916919708252	-341.7301025390625	0.5582247972488403	2.280745029449463	-380.61572265625	-0.0	-0.0	-0.0	-0.0	-0.0	-0.0	100719.6953125	-18915.349609375	-6289.61083984375
0.48	-0.0	-0.0	-0.0	-0.5710014700889587	-3.622667789459229	-341.10906982421875	1.058958888053894	2.5870721340179443	-381.2735595703125	-0.0	-0.0	-0.0	-0.0	-0.0	-0.0	100388.9140625	-18904.482421875	-6175.82763671875
0.4805	-0.0	-0.0	-0.0	-0.0158913284540176	-3.686100482940674	-338.34637451171875	1.3149107694625854	2.561328887939453	-379.5898132324219	-0.0	-0.0	-0.0	-0.0	-0.0	-0.0	100540.4296875	-18955.408203125	-6114.47314453125
0.481	-0.0	-0.0	-0.0	-0.1051395386457443	-4.026782989501953	-339.1410217285156	1.5652170181274414	2.1511590480804443	-380.51312255859375	-0.0	-0.0	-0.0	-0.0	-0.0	-0.0	100113.390625	-19119.626953125	-5844.1689453125
0.4815	-0.0	-0.0	-0.0	0.0732563510537147	-3.839115858078003	-337.1231384277344	1.5177266597747805	2.0217978954315186	-378.7915344238281	-0.0	-0.0	-0.0	-0.0	-0.0	-0.0	100053.3203125	-18937.787109375	-5906.8388671875
0.482	-0.0	-0.0	-0.0	0.3408529162406921	-3.832607269287109	-336.29058837890625	1.3782066106796265	1.943077087402344	-377.2708740234375	-0.0	-0.0	-0.0	-0.0	-0.0	-0.0	99912.796875	-18881.462890625	-5845.5087890625
0.4825	-0.0	-0.0	-0.0	0.2104746550321579	-4.399414539337158	-336.1638488769531	1.44454026222229	2.280547618865967	-376.7971496582031	-0.0	-0.0	-0.0	-0.0	-0.0	-0.0	99719.3828125	-18904.90625	-5939.6171875
0.483	-0.0	-0.0	-0.0	0.4139235019683838	-4.529600620269775	-336.70770263671875	1.185086727142334	2.024600028991699	-377.083740234375	-0.0	-0.0	-0.0	-0.0	-0.0	-0.0	99566.2109375	-19025.083984375	-5823.44384765625
0.4835	-0.0	-0.0	-0.0	0.6493216156959534	-3.856009960174561	-336.7425537109375	1.435321807861328	2.4094901084899902	-376.5737609863281	-0.0	-0.0	-0.0	-0.0	-0.0	-0.0	99556.4140625	-18704.16015625	-5766.19287109375
0.484	-0.0	-0.0	-0.0	0.0322566330432891	-3.897062540054321	-336.6782531738281	1.4761099815368652	2.2167809009552	-376.7975463867188	-0.0	-0.0	-0.0	-0.0	-0.0	-0.0	99374.5390625	-18861.2265625	-5887.904296875
0.4845	-0.0	-0.0	-0.0	-0.1951819062232971	-3.654346466064453	-336.70849609375	1.306047797203064	1.5971920490264893	-376.7007751464844	-0.0	-0.0	-0.0	-0.0	-0.0	-0.0	99667.453125	-18885.943359375	-5882.8623046875
0.485	-0.0	-0.0	-0.0	-0.2514395117759704	-3.743476867675781	-335.2959899902344	0.8946973085403442	1.943077087402344	-378.6400146484375	-0.0	-0.0	-0.0	-0.0	-0.0	-0.0	99715.703125	-18876.669921875	-5937.044921875
0.4855	-0.0	-0.0	-0.0	-1.14350688457489	-3.686776638031006	-338.24981689453125	0.6287899017333984	1.7421798706054688	-376.7979431152344	-0.0	-0.0	-0.0	-0.0	-0.0	-0.0	99869.515625	-18854.76953125	-6039.8154296875
0.486	-0.0	-0.0	-0.0	-1.91382896900177	-3.265319347381592	-336.5805053710937	0.7580612897872925	1.461309790611267	-378.0677490234375	-0.0	-0.0	-0.0	-0.0	-0.0	-0.0	100096.0390625	-18921.39453125	-6117.9775390625
0.4865	-0.0	-0.0	-0.0	-1.84938383102417	-3.50864315032959	-337.4465026855469	0.6209754943847656	1.252583622932434	-379.1473693847656	-0.0	-0.0	-0.0	-0.0	-0.0	-0.0	100156.28125	-18912.861328125	-6042.64306640625
0.487	-0.0	-0.0	-0.0	-2.1976006031036377	-3.1283323764801025	-336.779296875	0.6611211895942688	1.5098512172698977	-379.464111328125	-0.0	-0.0	-0.0	-0.0	-0.0	-0.0	100316.5703125	-19005.72265625	-6147.61328125
0.4875	-0.0	-0.0	-0.0	-2.6836817264556885	-2.6412038803100586	-339.4350891113281	0.5647164583206177	1.1406337022781372	-379.52783203125	-0.0	-0.0	-0.0	-0.0	-0.0	-0.0	100295.2890625	-19328.150390625	-6080.43701171875
0.488	-0.0	-0.0	-0.0	-2.699946403503418	-2.462891101837158	-338.5697631835937	0.2261767834424972	1.1556012630462646	-379.65576171875	-0.0	-0.0	-0.0	-0.0	-0.0	-0.0	100510.359375	-19072.353515625	-6132.07568359375
0.4885	-0.0	-0.0	-0.0	-2.7420454025268555	-1.7826080322265625	-339.1828308105469	0.2100000232458114	0.971538543701172	-380.0051879882813	-0.0	-0.0	-0.0	-0.0	-0.0	-0.0	100760.6640625	-19168.23828125	-6229.05224609375
0.489	-0.0	-0.0	-0.0	-3.201967477798462	-1.1916061639785769	-337.83563232421875	-0.0887107849121093	0.5949505567550659	-380.1340026855469	-0.0	-0.0	-0.0	-0.0	-0.0	-0.0	100781.5859375	-19305.755859375	-6199.6962890625
0.4895	-0.0	-0.0	-0.0	-3.2048439979553223	-1.175175666809082	-338.63427734375	-0.2567337453365326	1.122544765472412	-379.7208862304688	-0.0	-0.0	-0.0	-0.0	-0.0	-0.0	100536.71875	-19267.65625	-6234.8134765625
0.49	-0.0	-0.0	-0.0	-3.423059463500977	-1.2973712682724	-339.733154296875	0.4107815325260162	1.3478896617889404	-379.876953125	-0.0	-0.0	-0.0	-0.0	-0.0	-0.0	100847.40625	-19362.19140625	-6126.59619140625
0.4905	-0.0	-0.0	-0.0	-3.016589641571045	-1.314037203788757	-339.8499450683594	0.515841007232666	1.0042418241500854	-379.3338928222656	-0.0	-0.0	-0.0	-0.0	-0.0	-0.0	100680.140625	-19373.591796875	-5976.12158203125
